<svg width="50" height="55" viewBox="0 0 50 55" fill="none" xmlns="http://www.w3.org/2000/svg">
<path d="M38.8889 55H11.1111C8.04286 55 5.55556 52.5376 5.55556 49.5V13.75H0V8.25H11.1111V5.5C11.1111 2.46243 13.5984 0 16.6667 0H33.3333C36.4016 0 38.8889 2.46243 38.8889 5.5V8.25H50V13.75H44.4444V49.5C44.4444 52.5376 41.9571 55 38.8889 55ZM11.1111 13.75V49.5H38.8889V13.75H11.1111ZM16.6667 5.5V8.25H33.3333V5.5H16.6667ZM33.3333 44H27.7778V19.25H33.3333V44ZM22.2222 44H16.6667V19.25H22.2222V44Z" fill="black"/>
</svg>
