<svg width="60" height="60" viewBox="0 0 60 60" fill="none" xmlns="http://www.w3.org/2000/svg">
<path d="M2.40002 31.3733C2.40336 45.6284 12.665 57.7659 26.6025 60V39.7478H19.3248V31.3733H26.6111V24.9983C26.2853 21.9776 27.3068 18.967 29.3983 16.7831C31.4899 14.5992 34.4348 13.4683 37.4343 13.6972C39.5873 13.7323 41.7349 13.926 43.86 14.2767V21.4023H40.2341C38.9858 21.2371 37.7308 21.6536 36.8226 22.5343C35.9145 23.4151 35.4514 24.6648 35.564 25.9314V31.3733H43.5129L42.2421 39.7507H35.564V60C50.637 57.5937 61.2067 43.6881 59.6158 28.357C58.0249 13.026 44.8304 1.63663 29.591 2.44003C14.3517 3.24342 2.40245 15.9583 2.40002 31.3733Z" fill="white"/>
</svg>
