<svg width="60" height="60" viewBox="0 0 60 60" fill="none" xmlns="http://www.w3.org/2000/svg">
<path d="M29.9847 57.6C22.4449 57.6 21.556 57.5602 18.6137 57.4317C16.3192 57.3563 14.0543 56.8906 11.9167 56.0544C8.21828 54.6172 5.29378 51.6958 3.85588 48.0021C3.05074 45.8599 2.61647 43.5965 2.57166 41.3087C2.40002 38.3767 2.40002 37.4157 2.40002 29.9449C2.40002 22.3946 2.43987 21.5131 2.57166 18.5903C2.61745 16.3057 3.0517 14.0454 3.85588 11.9061C5.29222 8.2075 8.22147 5.28359 11.9259 3.85072C14.0672 3.04336 16.3313 2.60858 18.6198 2.56529C21.5469 2.40002 22.5093 2.40002 29.9847 2.40002C37.5858 2.40002 38.4593 2.43981 41.3557 2.56529C43.6501 2.60896 45.9202 3.04369 48.068 3.85072C51.7714 5.28521 54.7001 8.20856 56.138 11.9061C56.9568 14.0766 57.3933 16.3722 57.4284 18.6913C57.6 21.6233 57.6 22.5813 57.6 30.049C57.6 37.5167 57.5571 38.4961 57.4284 41.3944C57.3828 43.6843 56.9475 45.9498 56.1411 48.094C54.6995 51.7902 51.7707 54.7126 48.068 56.1493C45.9233 56.9518 43.6578 57.3854 41.368 57.4317C38.4409 57.6 37.4816 57.6 29.9847 57.6ZM29.8805 7.24487C22.3836 7.24487 21.6051 7.28159 18.678 7.4132C16.931 7.43631 15.2008 7.75825 13.5626 8.36503C11.1436 9.28934 9.22946 11.1929 8.29395 13.6047C7.68161 15.2583 7.35916 17.0049 7.34075 18.7678C7.1783 21.7335 7.1783 22.5109 7.1783 29.9449C7.1783 37.2902 7.20589 38.1809 7.34075 41.1282C7.36818 42.8733 7.69045 44.6013 8.29395 46.2393C9.23084 48.6494 11.1447 50.5516 13.5626 51.4759C15.1997 52.0867 16.9306 52.4087 18.678 52.4277C21.6449 52.5991 22.4265 52.5991 29.8805 52.5991C37.3988 52.5991 38.1773 52.5624 41.0799 52.4277C42.8281 52.4065 44.5596 52.0845 46.1984 51.4759C48.6027 50.5436 50.5044 48.6458 51.4394 46.2454C52.0506 44.5904 52.373 42.843 52.3926 41.0792H52.4264C52.5582 38.1533 52.5582 37.3729 52.5582 29.896C52.5582 22.4191 52.5244 21.6325 52.3926 18.7097C52.3652 16.9665 52.0429 15.2406 51.4394 13.6047C50.5065 11.2008 48.6046 9.29939 46.1984 8.36503C44.56 7.75519 42.8283 7.43316 41.0799 7.4132C38.116 7.24487 37.3406 7.24487 29.8805 7.24487ZM29.9847 44.0816C24.2532 44.0853 19.0839 40.6407 16.8877 35.3543C14.6915 30.0679 15.9009 23.9809 19.9519 19.9322C24.003 15.8835 30.0977 14.6706 35.3936 16.8591C40.6896 19.0475 44.1436 24.2064 44.1448 29.9296C44.1364 37.7373 37.8036 44.0664 29.9847 44.0816ZM29.9847 20.7419C24.9065 20.7419 20.7898 24.8526 20.7898 29.9235C20.7898 34.9944 24.9065 39.1051 29.9847 39.1051C35.0629 39.1051 39.1796 34.9944 39.1796 29.9235C39.1678 24.8575 35.058 20.7537 29.9847 20.7419ZM44.6965 18.5597C42.8742 18.5529 41.4014 17.0741 41.4048 15.2543C41.4081 13.4346 42.8864 11.9612 44.7088 11.9612C46.5311 11.9612 48.0094 13.4346 48.0128 15.2543C48.0136 16.1323 47.6643 16.9744 47.042 17.5946C46.4197 18.2149 45.5757 18.5621 44.6965 18.5597Z" fill="white"/>
</svg>
