<svg width="201" height="33" viewBox="0 0 201 33" fill="none" xmlns="http://www.w3.org/2000/svg">
<path d="M8.75 3.94C10.97 3.94 12.91 4.38 14.57 5.26C16.23 6.14 17.51 7.38 18.41 8.98C19.33 10.56 19.79 12.39 19.79 14.47C19.79 16.53 19.33 18.36 18.41 19.96C17.51 21.56 16.22 22.8 14.54 23.68C12.88 24.56 10.95 25 8.75 25H0.86V3.94H8.75ZM8.42 20.56C10.36 20.56 11.87 20.03 12.95 18.97C14.03 17.91 14.57 16.41 14.57 14.47C14.57 12.53 14.03 11.02 12.95 9.94C11.87 8.86 10.36 8.32 8.42 8.32H5.99V20.56H8.42ZM25.2369 6.52C24.3369 6.52 23.5969 6.26 23.0169 5.74C22.4569 5.2 22.1769 4.54 22.1769 3.76C22.1769 2.96 22.4569 2.3 23.0169 1.78C23.5969 1.24 24.3369 0.969998 25.2369 0.969998C26.1169 0.969998 26.8369 1.24 27.3969 1.78C27.9769 2.3 28.2669 2.96 28.2669 3.76C28.2669 4.54 27.9769 5.2 27.3969 5.74C26.8369 6.26 26.1169 6.52 25.2369 6.52ZM27.7869 8.26V25H22.6569V8.26H27.7869ZM30.4845 16.6C30.4845 14.88 30.8045 13.37 31.4445 12.07C32.1045 10.77 32.9945 9.77 34.1145 9.07C35.2345 8.37 36.4845 8.02 37.8645 8.02C39.0445 8.02 40.0745 8.26 40.9545 8.74C41.8545 9.22 42.5445 9.85 43.0245 10.63V8.26H48.1545V25H43.0245V22.63C42.5245 23.41 41.8245 24.04 40.9245 24.52C40.0445 25 39.0145 25.24 37.8345 25.24C36.4745 25.24 35.2345 24.89 34.1145 24.19C32.9945 23.47 32.1045 22.46 31.4445 21.16C30.8045 19.84 30.4845 18.32 30.4845 16.6ZM43.0245 16.63C43.0245 15.35 42.6645 14.34 41.9445 13.6C41.2445 12.86 40.3845 12.49 39.3645 12.49C38.3445 12.49 37.4745 12.86 36.7545 13.6C36.0545 14.32 35.7045 15.32 35.7045 16.6C35.7045 17.88 36.0545 18.9 36.7545 19.66C37.4745 20.4 38.3445 20.77 39.3645 20.77C40.3845 20.77 41.2445 20.4 41.9445 19.66C42.6645 18.92 43.0245 17.91 43.0245 16.63ZM56.9959 11.05C57.5959 10.13 58.3459 9.41 59.2459 8.89C60.1459 8.35 61.1459 8.08 62.2459 8.08V13.51H60.8359C59.5559 13.51 58.5959 13.79 57.9559 14.35C57.3159 14.89 56.9959 15.85 56.9959 17.23V25H51.8659V8.26H56.9959V11.05ZM81.7979 8.26L71.2979 32.95H65.7779L69.6179 24.43L62.8079 8.26H68.5379L72.4079 18.73L76.2479 8.26H81.7979ZM99.703 10.72C99.703 11.94 99.423 13.06 98.863 14.08C98.303 15.08 97.443 15.89 96.283 16.51C95.123 17.13 93.683 17.44 91.963 17.44H88.783V25H83.653V3.94H91.963C93.643 3.94 95.063 4.23 96.223 4.81C97.383 5.39 98.253 6.19 98.833 7.21C99.413 8.23 99.703 9.4 99.703 10.72ZM91.573 13.36C92.553 13.36 93.283 13.13 93.763 12.67C94.243 12.21 94.483 11.56 94.483 10.72C94.483 9.88 94.243 9.23 93.763 8.77C93.283 8.31 92.553 8.08 91.573 8.08H88.783V13.36H91.573ZM107.504 2.8V25H102.374V2.8H107.504ZM110.201 16.6C110.201 14.88 110.521 13.37 111.161 12.07C111.821 10.77 112.711 9.77 113.831 9.07C114.951 8.37 116.201 8.02 117.581 8.02C118.761 8.02 119.791 8.26 120.671 8.74C121.571 9.22 122.261 9.85 122.741 10.63V8.26H127.871V25H122.741V22.63C122.241 23.41 121.541 24.04 120.641 24.52C119.761 25 118.731 25.24 117.551 25.24C116.191 25.24 114.951 24.89 113.831 24.19C112.711 23.47 111.821 22.46 111.161 21.16C110.521 19.84 110.201 18.32 110.201 16.6ZM122.741 16.63C122.741 15.35 122.381 14.34 121.661 13.6C120.961 12.86 120.101 12.49 119.081 12.49C118.061 12.49 117.191 12.86 116.471 13.6C115.771 14.32 115.421 15.32 115.421 16.6C115.421 17.88 115.771 18.9 116.471 19.66C117.191 20.4 118.061 20.77 119.081 20.77C120.101 20.77 120.961 20.4 121.661 19.66C122.381 18.92 122.741 17.91 122.741 16.63ZM141.783 8.08C143.743 8.08 145.303 8.72 146.463 10C147.643 11.26 148.233 13 148.233 15.22V25H143.133V15.91C143.133 14.79 142.843 13.92 142.263 13.3C141.683 12.68 140.903 12.37 139.923 12.37C138.943 12.37 138.163 12.68 137.583 13.3C137.003 13.92 136.713 14.79 136.713 15.91V25H131.583V8.26H136.713V10.48C137.233 9.74 137.933 9.16 138.813 8.74C139.693 8.3 140.683 8.08 141.783 8.08ZM161.998 8.08C163.958 8.08 165.518 8.72 166.678 10C167.858 11.26 168.448 13 168.448 15.22V25H163.348V15.91C163.348 14.79 163.058 13.92 162.478 13.3C161.898 12.68 161.118 12.37 160.138 12.37C159.158 12.37 158.378 12.68 157.798 13.3C157.218 13.92 156.928 14.79 156.928 15.91V25H151.798V8.26H156.928V10.48C157.448 9.74 158.148 9.16 159.028 8.74C159.908 8.3 160.898 8.08 161.998 8.08ZM187.792 16.36C187.792 16.84 187.762 17.34 187.702 17.86H176.092C176.172 18.9 176.502 19.7 177.082 20.26C177.682 20.8 178.412 21.07 179.272 21.07C180.552 21.07 181.442 20.53 181.942 19.45H187.402C187.122 20.55 186.612 21.54 185.872 22.42C185.152 23.3 184.242 23.99 183.142 24.49C182.042 24.99 180.812 25.24 179.452 25.24C177.812 25.24 176.352 24.89 175.072 24.19C173.792 23.49 172.792 22.49 172.072 21.19C171.352 19.89 170.992 18.37 170.992 16.63C170.992 14.89 171.342 13.37 172.042 12.07C172.762 10.77 173.762 9.77 175.042 9.07C176.322 8.37 177.792 8.02 179.452 8.02C181.072 8.02 182.512 8.36 183.772 9.04C185.032 9.72 186.012 10.69 186.712 11.95C187.432 13.21 187.792 14.68 187.792 16.36ZM182.542 15.01C182.542 14.13 182.242 13.43 181.642 12.91C181.042 12.39 180.292 12.13 179.392 12.13C178.532 12.13 177.802 12.38 177.202 12.88C176.622 13.38 176.262 14.09 176.122 15.01H182.542ZM195.629 11.05C196.229 10.13 196.979 9.41 197.879 8.89C198.779 8.35 199.779 8.08 200.879 8.08V13.51H199.469C198.189 13.51 197.229 13.79 196.589 14.35C195.949 14.89 195.629 15.85 195.629 17.23V25H190.499V8.26H195.629V11.05Z" fill="white"/>
</svg>
