<svg width="55" height="55" viewBox="0 0 55 55" fill="none" xmlns="http://www.w3.org/2000/svg">
<path d="M3.02996 55C2.18337 54.9985 1.37633 54.6415 0.805727 54.0159C0.224606 53.3954 -0.0641552 52.5563 0.0120048 51.7095L0.751404 43.5769L34.9086 9.42247L45.5831 20.0969L11.435 54.2483L3.30459 54.9879C3.21104 54.997 3.11748 55 3.02996 55ZM47.7138 17.9626L37.0423 7.2882L43.4434 0.885368C44.0095 0.31851 44.7776 0 45.5786 0C46.3796 0 47.1477 0.31851 47.7138 0.885368L54.1149 7.2882C54.6816 7.85442 55 8.62277 55 9.42398C55 10.2252 54.6816 10.9935 54.1149 11.5598L47.7168 17.9596L47.7138 17.9626Z" fill="black"/>
</svg>
