<svg width="60" height="60" viewBox="0 0 60 60" fill="none" xmlns="http://www.w3.org/2000/svg">
<g clip-path="url(#clip0)">
<path d="M53.7793 14.8632C56.3917 13.3304 58.3465 10.9167 59.2785 8.07296C56.8237 9.50252 54.1379 10.5095 51.3372 11.0505C47.4542 7.01904 41.3021 6.03796 36.3184 8.65547C31.3347 11.273 28.7533 16.841 30.0166 22.2484C19.9614 21.7529 10.5932 17.0911 4.24313 9.423C0.929175 15.0332 2.62268 22.2049 8.11323 25.8123C6.12779 25.7496 4.18638 25.222 2.45087 24.2735C2.45087 24.3249 2.45087 24.3764 2.45087 24.4279C2.45202 30.2718 6.64846 35.3057 12.4846 36.4639C10.643 36.9556 8.71126 37.028 6.8368 36.6755C8.4781 41.6732 13.171 45.0969 18.52 45.1991C14.0898 48.6117 8.61878 50.4624 2.98709 50.4534C1.98888 50.4548 0.991453 50.3984 0 50.2846C5.71887 53.8915 12.3749 55.8059 19.1728 55.7992C28.6302 55.8629 37.7191 52.2036 44.4063 45.6396C51.0936 39.0757 54.8213 30.1548 54.7556 20.8726C54.7556 20.3406 54.743 19.8115 54.7177 19.2852C57.167 17.5479 59.2809 15.3956 60.96 12.9297C58.6782 13.9224 56.2578 14.5741 53.7793 14.8632Z" fill="white"/>
</g>
<defs>
<clipPath id="clip0">
<rect width="60" height="60" fill="white"/>
</clipPath>
</defs>
</svg>
