<svg width="60" height="60" viewBox="0 0 60 60" fill="none" xmlns="http://www.w3.org/2000/svg">
<path d="M9 57H3V54.1053C3.01323 42.9195 12.4075 33.8549 24 33.8421H36C47.5925 33.8549 56.9868 42.9195 57 54.1053V57H51V54.1053C50.9901 46.1156 44.2802 39.6411 36 39.6316H24C15.7198 39.6411 9.00992 46.1156 9 54.1053V57ZM30 30.9474C21.7157 30.9474 15 24.4673 15 16.4737C15 8.48009 21.7157 2 30 2C38.2843 2 45 8.48009 45 16.4737C44.9901 24.4633 38.2802 30.9378 30 30.9474ZM30 7.78947C25.0294 7.78947 21 11.6775 21 16.4737C21 21.2698 25.0294 25.1579 30 25.1579C34.9706 25.1579 39 21.2698 39 16.4737C39 11.6775 34.9706 7.78947 30 7.78947Z" fill="white"/>
</svg>
